<svg viewBox="0 0 1024 1024"
     xmlns="http://www.w3.org/2000/svg"
     width="200"
     height="200">
    <path d="M514.375414 58.897979c67.71056 0 128.986002 27.448318 173.347881 71.810198 44.419217 44.419217 71.867535 105.694658 71.867535 173.404194s-27.392004 129.042315-71.867535 173.404195c-44.361879 44.361879-105.637321 71.810197-173.347881 71.810197s-128.986002-27.448318-173.404195-71.810197c-44.361879-44.361879-71.810197-105.694658-71.810197-173.404195s27.448318-128.986002 71.810197-173.404194C385.390436 86.347321 446.665877 58.897979 514.375414 58.897979z m-9.794487 601.307374l-53.131457 254.440623 59.452925 50.455021 59.510263-50.455021-53.132481-254.440623 23.234005-14.977395-29.612811-19.020717-29.612811 19.020717 23.292367 14.977395z m110.420913-92.767082c139.349769 46.753676 241.798711 185.249524 247.492537 350.453421H609.59163l-56.719152-281.661638 62.129362-68.791783zM411.129889 917.891692H159.992321c5.69485-164.805606 107.51615-302.903163 246.240325-349.997792L467.906378 636.173741l-56.776489 281.717951z m133.484954-705.52047c-4.498952 2.505447-9.054218 4.954581-13.667845 7.175389C450.082583 258.953909 349.057866 265.503704 303.841042 266.243973a211.69341 211.69341 0 0 0-3.132065 36.275233c0 58.997296 23.917961 112.414418 62.58499 151.081447s92.084151 62.58499 151.081447 62.58499c59.054634 0 112.35708-23.917961 151.137761-62.58499 38.610716-38.667029 62.527653-92.084151 62.527652-151.081447 0-14.578079-1.423201-28.815205-4.270625-42.596701-18.507751 0.170989-37.414818-1.13856-56.434512-4.498952-43.450622-7.744669-86.160974-24.715568-122.720847-43.052331z"
          fill="#000000" transform="scale(1.12, 1.12)translate(-50,-50)"/>
</svg>
